<?xml version="1.0" encoding="UTF-8" standalone="no"?>
<svg
   xmlns:dc="http://purl.org/dc/elements/1.1/"
   xmlns:cc="http://creativecommons.org/ns#"
   xmlns:rdf="http://www.w3.org/1999/02/22-rdf-syntax-ns#"
   xmlns:svg="http://www.w3.org/2000/svg"
   xmlns="http://www.w3.org/2000/svg"
   xmlns:sodipodi="http://sodipodi.sourceforge.net/DTD/sodipodi-0.dtd"
   xmlns:inkscape="http://www.inkscape.org/namespaces/inkscape"
   sodipodi:docname="gmvp.svg"
   inkscape:version="1.0 (4035a4fb49, 2020-05-01)"
   id="svg8"
   version="1.1"
   viewBox="0 0 210 297"
   height="297mm"
   width="210mm">
  <defs
     id="defs2" />
  <sodipodi:namedview
     inkscape:document-rotation="0"
     inkscape:window-maximized="1"
     inkscape:window-y="-9"
     inkscape:window-x="-9"
     inkscape:window-height="1001"
     inkscape:window-width="1920"
     showgrid="false"
     inkscape:current-layer="layer1"
     inkscape:document-units="mm"
     inkscape:cy="562.2935"
     inkscape:cx="522.29921"
     inkscape:zoom="0.5"
     inkscape:pageshadow="2"
     inkscape:pageopacity="0"
     borderopacity="1.0"
     bordercolor="#666666"
     pagecolor="#515151"
     id="base" />
  <metadata
     id="metadata5">
    <rdf:RDF>
      <cc:Work
         rdf:about="">
        <dc:format>image/svg+xml</dc:format>
        <dc:type
           rdf:resource="http://purl.org/dc/dcmitype/StillImage" />
        <dc:title />
      </cc:Work>
    </rdf:RDF>
  </metadata>
  <g
     id="layer1"
     inkscape:groupmode="layer"
     inkscape:label="Layer 1">
    <path
       id="path2825"
       d="m 104.51488,46.868006 a 2.3832918,2.5981318 0 0 0 -0.71903,0.111985 L 13.837715,76.83996 a 2.3832918,2.5981318 0 0 0 -1.690188,2.494056 l 0.464569,133.714554 a 2.3832918,2.5981318 0 0 0 1.69719,2.4788 l 89.407194,29.19828 a 2.3832918,2.5981318 0 0 0 1.33767,0.0107 l 89.99084,-28.0327 a 2.3832918,2.5981318 0 0 0 1.72987,-2.50933 L 196.31029,80.481792 A 2.3832918,2.5981318 0 0 0 194.65045,78.01573 L 105.2129,46.990164 a 2.3832918,2.5981318 0 0 0 -0.69802,-0.122158 z m -0.0421,5.31896 87.07735,30.206089 0.45056,129.853865 -87.58395,27.28447 L 17.369764,211.10168 16.921537,81.247824 Z"
       style="color:#000000;font-style:normal;font-variant:normal;font-weight:normal;font-stretch:normal;font-size:medium;line-height:normal;font-family:sans-serif;font-variant-ligatures:normal;font-variant-position:normal;font-variant-caps:normal;font-variant-numeric:normal;font-variant-alternates:normal;font-variant-east-asian:normal;font-feature-settings:normal;font-variation-settings:normal;text-indent:0;text-align:start;text-decoration:none;text-decoration-line:none;text-decoration-style:solid;text-decoration-color:#000000;letter-spacing:normal;word-spacing:normal;text-transform:none;writing-mode:lr-tb;direction:ltr;text-orientation:mixed;dominant-baseline:auto;baseline-shift:baseline;text-anchor:start;white-space:normal;shape-padding:0;shape-margin:0;inline-size:0;clip-rule:nonzero;display:inline;overflow:visible;visibility:visible;opacity:1;isolation:auto;mix-blend-mode:normal;color-interpolation:sRGB;color-interpolation-filters:linearRGB;solid-color:#000000;solid-opacity:1;vector-effect:none;fill:#00ff00;fill-opacity:1;fill-rule:nonzero;stroke:none;stroke-width:4.97628;stroke-linecap:round;stroke-linejoin:round;stroke-miterlimit:4;stroke-dasharray:none;stroke-dashoffset:0;stroke-opacity:1;color-rendering:auto;image-rendering:auto;shape-rendering:auto;text-rendering:auto;enable-background:accumulate;stop-color:#000000;stop-opacity:1" />
    <path
       id="path2815"
       d="m 71.746921,76.837967 a 1.401661,1.5280127 0 0 0 -1.400708,1.526975 v 45.300238 a 1.401661,1.5280127 0 0 0 1.400708,1.52951 h 69.659539 a 1.401661,1.5280127 0 0 0 1.40305,-1.52951 V 78.364942 a 1.401661,1.5280127 0 0 0 -1.40305,-1.526975 z m 1.403043,3.056493 h 66.855796 v 42.24373 H 73.149964 Z"
       style="color:#000000;font-style:normal;font-variant:normal;font-weight:normal;font-stretch:normal;font-size:medium;line-height:normal;font-family:sans-serif;font-variant-ligatures:normal;font-variant-position:normal;font-variant-caps:normal;font-variant-numeric:normal;font-variant-alternates:normal;font-variant-east-asian:normal;font-feature-settings:normal;font-variation-settings:normal;text-indent:0;text-align:start;text-decoration:none;text-decoration-line:none;text-decoration-style:solid;text-decoration-color:#000000;letter-spacing:normal;word-spacing:normal;text-transform:none;writing-mode:lr-tb;direction:ltr;text-orientation:mixed;dominant-baseline:auto;baseline-shift:baseline;text-anchor:start;white-space:normal;shape-padding:0;shape-margin:0;inline-size:0;clip-rule:nonzero;display:inline;overflow:visible;visibility:visible;opacity:1;isolation:auto;mix-blend-mode:normal;color-interpolation:sRGB;color-interpolation-filters:linearRGB;solid-color:#000000;solid-opacity:1;vector-effect:none;fill:#00ff00;fill-opacity:1;fill-rule:nonzero;stroke:none;stroke-width:2.92666;stroke-linecap:round;stroke-linejoin:round;stroke-miterlimit:4;stroke-dasharray:none;stroke-dashoffset:0;stroke-opacity:1;color-rendering:auto;image-rendering:auto;shape-rendering:auto;text-rendering:auto;enable-background:accumulate;stop-color:#000000;stop-opacity:1" />
    <g
       transform="matrix(1.0400464,0,0,0.95124813,-11.158571,19.238922)"
       style="opacity:1"
       id="g2817">
      <path
         id="path2819"
         d="m 102.31469,112.12649 h 22.28392 v 5.94372 h -22.28392 z"
         style="color:#000000;font-style:normal;font-variant:normal;font-weight:normal;font-stretch:normal;font-size:medium;line-height:normal;font-family:sans-serif;font-variant-ligatures:normal;font-variant-position:normal;font-variant-caps:normal;font-variant-numeric:normal;font-variant-alternates:normal;font-variant-east-asian:normal;font-feature-settings:normal;font-variation-settings:normal;text-indent:0;text-align:start;text-decoration:none;text-decoration-line:none;text-decoration-style:solid;text-decoration-color:#000000;letter-spacing:normal;word-spacing:normal;text-transform:none;writing-mode:lr-tb;direction:ltr;text-orientation:mixed;dominant-baseline:auto;baseline-shift:baseline;text-anchor:start;white-space:normal;shape-padding:0;shape-margin:0;inline-size:0;clip-rule:nonzero;display:inline;overflow:visible;visibility:visible;isolation:auto;mix-blend-mode:normal;color-interpolation:sRGB;color-interpolation-filters:linearRGB;solid-color:#000000;solid-opacity:1;vector-effect:none;fill:#00ff00;fill-opacity:1;fill-rule:nonzero;stroke:none;stroke-width:1.57852;stroke-linecap:round;stroke-linejoin:round;stroke-miterlimit:4;stroke-dasharray:none;stroke-dashoffset:0;stroke-opacity:1;color-rendering:auto;image-rendering:auto;shape-rendering:auto;text-rendering:auto;enable-background:accumulate;stop-color:#000000;stop-opacity:1" />
      <path
         id="path2821"
         d="m 102.31445,111.33789 a 0.78933896,0.78933896 0 0 0 -0.78906,0.78906 v 5.94336 a 0.78933896,0.78933896 0 0 0 0.78906,0.78907 h 22.28321 a 0.78933896,0.78933896 0 0 0 0.79101,-0.78907 v -5.94336 a 0.78933896,0.78933896 0 0 0 -0.79101,-0.78906 z m 0.78907,1.57813 h 20.70507 v 4.36523 h -20.70507 z"
         style="color:#000000;font-style:normal;font-variant:normal;font-weight:normal;font-stretch:normal;font-size:medium;line-height:normal;font-family:sans-serif;font-variant-ligatures:normal;font-variant-position:normal;font-variant-caps:normal;font-variant-numeric:normal;font-variant-alternates:normal;font-variant-east-asian:normal;font-feature-settings:normal;font-variation-settings:normal;text-indent:0;text-align:start;text-decoration:none;text-decoration-line:none;text-decoration-style:solid;text-decoration-color:#000000;letter-spacing:normal;word-spacing:normal;text-transform:none;writing-mode:lr-tb;direction:ltr;text-orientation:mixed;dominant-baseline:auto;baseline-shift:baseline;text-anchor:start;white-space:normal;shape-padding:0;shape-margin:0;inline-size:0;clip-rule:nonzero;display:inline;overflow:visible;visibility:visible;isolation:auto;mix-blend-mode:normal;color-interpolation:sRGB;color-interpolation-filters:linearRGB;solid-color:#000000;solid-opacity:1;vector-effect:none;fill:#00ff00;fill-opacity:1;fill-rule:nonzero;stroke:none;stroke-width:1.57852;stroke-linecap:round;stroke-linejoin:round;stroke-miterlimit:4;stroke-dasharray:none;stroke-dashoffset:0;stroke-opacity:1;color-rendering:auto;image-rendering:auto;shape-rendering:auto;text-rendering:auto;enable-background:accumulate;stop-color:#000000;stop-opacity:1" />
    </g>
    <flowRoot
       transform="matrix(0.26458333,0,0,0.26458333,-0.52916667,-4.7625)"
       style="font-style:normal;font-variant:normal;font-weight:bold;font-stretch:normal;font-size:96px;line-height:1.25;font-family:'Courier New';-inkscape-font-specification:'Courier New Bold';letter-spacing:0px;word-spacing:0px;fill:#000000;fill-opacity:1;stroke:none"
       id="flowRoot5748"
       xml:space="preserve"><flowRegion
         style="font-style:normal;font-variant:normal;font-weight:bold;font-stretch:normal;font-size:96px;font-family:'Courier New';-inkscape-font-specification:'Courier New Bold'"
         id="flowRegion5750"><rect
           style="font-style:normal;font-variant:normal;font-weight:bold;font-stretch:normal;font-size:96px;font-family:'Courier New';-inkscape-font-specification:'Courier New Bold'"
           y="572.51971"
           x="207"
           height="164"
           width="373"
           id="rect5752" /></flowRegion><flowPara
         id="flowPara5754" /></flowRoot>
    <g
       style="font-style:normal;font-variant:normal;font-weight:bold;font-stretch:normal;font-size:23.4734px;line-height:1.25;font-family:'Courier New';-inkscape-font-specification:'Courier New Bold';letter-spacing:0px;word-spacing:0px;fill:#00ff00;fill-opacity:1;stroke:none;stroke-width:0.244514"
       id="text5770"
       transform="matrix(1.2933761,0,0,1.2041813,-29.034033,-19.926371)"
       aria-label="GMVP">
      <path
         id="path2778"
         style="font-style:normal;font-variant:normal;font-weight:bold;font-stretch:normal;font-size:23.4734px;font-family:'Courier New';-inkscape-font-specification:'Courier New Bold';fill:#00ff00;stroke-width:0.244514"
         d="m 89.555211,150.94228 v 3.15194 q -1.593166,0.85963 -2.716404,1.16909 -1.111778,0.32093 -2.406941,0.32093 -1.799474,0 -3.335332,-0.5387 -1.20347,-0.41262 -1.902629,-1.04301 -0.687697,-0.63039 -1.27224,-1.85678 -0.584542,-1.23786 -0.584542,-2.76225 v -1.69632 q 0,-2.34963 1.432702,-4.19495 1.925553,-2.49864 5.237961,-2.49864 0.962776,0 1.822398,0.19485 0.871083,0.19485 1.650473,0.58454 0.469927,-0.42408 0.91693,-0.42408 0.515773,0 0.836698,0.35531 0.320926,0.35531 0.320926,1.20347 v 1.5244 q 0,0.84816 -0.332387,1.21493 -0.320926,0.35531 -0.836699,0.35531 -0.412618,0 -0.71062,-0.25216 -0.229232,-0.17192 -0.389695,-0.75646 -0.149001,-0.59601 -0.343849,-0.80232 -0.309464,-0.33238 -1.100315,-0.58454 -0.779391,-0.26362 -1.753628,-0.26362 -1.398318,0 -2.429864,0.57309 -0.733544,0.42408 -1.352471,1.47854 -0.618928,1.05447 -0.618928,2.29233 v 1.69632 q 0,1.89117 1.088854,2.87687 1.100316,0.97423 3.484333,0.97423 1.616088,0 2.945636,-0.60746 v -1.68486 H 84.8101 q -0.84816,0 -1.214932,-0.32093 -0.35531,-0.33238 -0.35531,-0.85962 0,-0.52723 0.35531,-0.84816 0.366772,-0.33238 1.214932,-0.33238 l 4.17203,0.0115 q 0.84816,0 1.20347,0.32092 0.366772,0.32093 0.366772,0.84816 0,0.41262 -0.252156,0.72208 -0.240694,0.30947 -0.745005,0.45847 z" />
      <path
         id="path2780"
         style="font-style:normal;font-variant:normal;font-weight:bold;font-stretch:normal;font-size:23.4734px;font-family:'Courier New';-inkscape-font-specification:'Courier New Bold';fill:#00ff00;stroke-width:0.244514"
         d="m 94.036705,145.8877 v 7.00305 h 0.84816 q 0.84816,0 1.20347,0.33239 0.366772,0.32093 0.366772,0.84816 0,0.51577 -0.366772,0.84816 -0.35531,0.32093 -1.20347,0.32093 h -3.083176 q -0.84816,0 -1.20347,-0.32093 -0.366772,-0.33239 -0.366772,-0.85962 0,-0.51577 0.35531,-0.8367 0.35531,-0.33239 1.100316,-0.33239 v -9.19222 q -0.618928,-0.0573 -0.939853,-0.37823 -0.309464,-0.32092 -0.309464,-0.80231 0,-0.52724 0.35531,-0.84816 0.366772,-0.33239 1.214932,-0.33239 l 2.578865,0.0115 3.197792,7.07182 3.140485,-7.08328 2.60179,0.0115 q 0.84816,0 1.20347,0.32093 0.36677,0.32092 0.36677,0.84816 0,0.48139 -0.32093,0.80231 -0.32092,0.32093 -0.92839,0.37823 v 9.19222 q 0.74501,0 1.10032,0.33239 0.35531,0.33239 0.35531,0.84816 0,0.51577 -0.36677,0.84816 -0.35531,0.32093 -1.20347,0.32093 h -3.09464 q -0.8367,0 -1.203471,-0.32093 -0.355311,-0.33239 -0.355311,-0.85962 0,-0.51577 0.355311,-0.8367 0.366771,-0.33239 1.203471,-0.33239 h 0.85962 v -7.00305 l -2.693481,6.05174 h -2.040168 z" />
      <path
         id="path2782"
         style="font-style:normal;font-variant:normal;font-weight:bold;font-stretch:normal;font-size:23.4734px;font-family:'Courier New';-inkscape-font-specification:'Courier New Bold';fill:#00ff00;stroke-width:0.244514"
         d="m 111.77929,151.81336 3.40411,-8.11483 h -0.5387 q -0.84816,0 -1.21493,-0.32092 -0.35531,-0.33239 -0.35531,-0.85962 0,-0.52724 0.35531,-0.84816 0.36677,-0.33239 1.21493,-0.33239 l 3.15195,0.0115 q 0.84816,0 1.20347,0.32093 0.36677,0.32092 0.36677,0.84816 0,0.63039 -0.55016,0.99716 -0.26362,0.18338 -1.07739,0.18338 l -4.82534,11.54186 h -2.25794 l -4.81388,-11.54186 q -0.82524,0 -1.08886,-0.18338 -0.55016,-0.35531 -0.55016,-0.99716 0,-0.52724 0.36678,-0.84816 0.35531,-0.33239 1.20347,-0.33239 l 3.17486,0.0115 q 0.8367,0 1.19201,0.32093 0.36677,0.32092 0.36677,0.84816 0,0.52723 -0.35531,0.85962 -0.35531,0.32092 -1.20347,0.32092 h -0.55015 z" />
      <path
         id="path2784"
         style="font-style:normal;font-variant:normal;font-weight:bold;font-stretch:normal;font-size:23.4734px;font-family:'Courier New';-inkscape-font-specification:'Courier New Bold';fill:#00ff00;stroke-width:0.244514"
         d="m 124.50169,150.47235 v 2.4184 h 2.37256 q 0.84816,0 1.20347,0.33239 0.36677,0.32093 0.36677,0.84816 0,0.51577 -0.36677,0.84816 -0.35531,0.32093 -1.20347,0.32093 h -5.08896 q -0.84816,0 -1.21493,-0.32093 -0.35531,-0.33239 -0.35531,-0.85962 0,-0.51577 0.36677,-0.8367 0.36677,-0.33239 1.20347,-0.33239 h 0.36677 v -9.19222 h -0.36677 q -0.84816,0 -1.21493,-0.32092 -0.35531,-0.33239 -0.35531,-0.85962 0,-0.52724 0.35531,-0.84816 0.36677,-0.33239 1.21493,-0.33239 l 5.40989,0.0115 q 2.38401,0 3.77087,1.30663 1.39832,1.29516 1.39832,3.1634 0,1.03155 -0.46993,1.94848 -0.35531,0.6877 -1.19201,1.36393 -0.82524,0.66478 -1.69632,1.00863 -0.85962,0.33238 -2.28086,0.33238 z m 0,-2.34963 h 2.17771 q 1.53586,0 2.42987,-0.6877 0.90546,-0.69916 0.90546,-1.67339 0,-0.82524 -0.73354,-1.44417 -0.72208,-0.61893 -2.07455,-0.61893 h -2.70495 z" />
    </g>
    <g
       style="font-style:normal;font-variant:normal;font-weight:bold;font-stretch:normal;font-size:23.4734px;line-height:1.25;font-family:'Courier New';-inkscape-font-specification:'Courier New Bold';letter-spacing:0px;word-spacing:0px;fill:#00ff00;fill-opacity:1;stroke:none;stroke-width:0.244514"
       id="text5774"
       transform="matrix(1.2933761,0,0,1.2041813,-29.034027,-19.926371)"
       aria-label="SOLUTIONS">
      <path
         id="path2787"
         style="font-style:normal;font-variant:normal;font-weight:bold;font-stretch:normal;font-size:23.4734px;font-family:'Courier New';-inkscape-font-specification:'Courier New Bold';fill:#00ff00;stroke-width:0.244514"
         d="m 45.095579,181.98819 q -0.309464,0.36678 -0.504311,0.46993 -0.183386,0.10315 -0.458465,0.10315 -0.538696,0 -0.871083,-0.35531 -0.320926,-0.36677 -0.320926,-1.20347 v -1.5817 q 0,-0.84816 0.320926,-1.20347 0.332387,-0.36677 0.871083,-0.36677 0.412618,0 0.687697,0.21777 0.286541,0.21777 0.435542,0.73354 0.149001,0.50431 0.309464,0.6877 0.332387,0.35531 1.180547,0.72208 0.84816,0.36677 1.856782,0.36677 1.570242,0 2.578865,-0.73354 0.641851,-0.447 0.641851,-1.10032 0,-0.43554 -0.309464,-0.81377 -0.309464,-0.3897 -1.008623,-0.64185 -0.458465,-0.17193 -2.05163,-0.46993 -1.925552,-0.35531 -2.911252,-0.85962 -0.985699,-0.50431 -1.55878,-1.42124 -0.573081,-0.91693 -0.573081,-1.98286 0,-1.68486 1.409779,-2.94564 1.40978,-1.27224 3.667719,-1.27224 0.905468,0 1.673397,0.20631 0.77939,0.19485 1.409779,0.60747 0.458465,-0.44701 0.91693,-0.44701 0.515773,0 0.836698,0.36678 0.332387,0.35531 0.332387,1.19201 v 1.76508 q 0,0.84816 -0.332387,1.21494 -0.320925,0.35531 -0.836698,0.35531 -0.435542,0 -0.756467,-0.26362 -0.252156,-0.19485 -0.378234,-0.77939 -0.126078,-0.58454 -0.320925,-0.8367 -0.332387,-0.43554 -0.997161,-0.73354 -0.664774,-0.298 -1.535857,-0.298 -1.27224,0 -2.017246,0.596 -0.733543,0.58454 -0.733543,1.22639 0,0.43554 0.298002,0.84816 0.309463,0.40116 0.894006,0.63039 0.389695,0.16046 2.18917,0.51578 1.810936,0.35531 2.773712,0.77939 0.974238,0.42408 1.616089,1.32954 0.64185,0.90547 0.64185,2.15479 0,1.74216 -1.226393,2.78517 -1.62755,1.3754 -4.149107,1.3754 -0.974238,0 -1.902629,-0.2407 -0.91693,-0.22923 -1.788013,-0.69916 z" />
      <path
         id="path2789"
         style="font-style:normal;font-variant:normal;font-weight:bold;font-stretch:normal;font-size:23.4734px;font-family:'Courier New';-inkscape-font-specification:'Courier New Bold';fill:#00ff00;stroke-width:0.244514"
         d="m 69.199369,175.63846 q 0,3.12902 -1.994322,5.21503 -1.982861,2.07456 -4.59611,2.07456 -2.349633,0 -4.2408,-1.73071 -2.338171,-2.14332 -2.338171,-5.55888 0,-3.41557 2.338171,-5.57035 1.891167,-1.73071 4.2408,-1.73071 2.613249,0 4.59611,2.08602 1.994322,2.07455 1.994322,5.21504 z m -2.349633,0 q 0,-2.14333 -1.295163,-3.54165 -1.295163,-1.40977 -2.945636,-1.40977 -1.639012,0 -2.934175,1.40977 -1.295164,1.40978 -1.295164,3.54165 0,2.13186 1.295164,3.54164 1.295163,1.39831 2.934175,1.39831 1.650473,0 2.945636,-1.39831 1.295163,-1.39832 1.295163,-3.54164 z" />
      <path
         id="path2791"
         style="font-style:normal;font-variant:normal;font-weight:bold;font-stretch:normal;font-size:23.4734px;font-family:'Courier New';-inkscape-font-specification:'Courier New Bold';fill:#00ff00;stroke-width:0.244514"
         d="m 75.698108,171.04235 v 9.19222 h 5.066037 v -2.22356 q 0,-0.84816 0.320925,-1.20347 0.332387,-0.36677 0.859622,-0.36677 0.515773,0 0.836698,0.36677 0.332387,0.35531 0.332387,1.20347 v 4.57319 H 71.984543 q -0.84816,0 -1.214932,-0.32093 -0.35531,-0.33238 -0.35531,-0.85962 0,-0.51577 0.35531,-0.8367 0.366772,-0.33238 1.214932,-0.33238 h 1.363933 v -9.19222 h -1.363933 q -0.84816,0 -1.214932,-0.32093 -0.35531,-0.33239 -0.35531,-0.85962 0,-0.52724 0.35531,-0.84816 0.366772,-0.33239 1.214932,-0.33239 l 5.08896,0.0115 q 0.84816,0 1.20347,0.32093 0.366772,0.32092 0.366772,0.84816 0,0.52723 -0.366772,0.85962 -0.35531,0.32093 -1.20347,0.32093 z" />
      <path
         id="path2793"
         style="font-style:normal;font-variant:normal;font-weight:bold;font-stretch:normal;font-size:23.4734px;font-family:'Courier New';-inkscape-font-specification:'Courier New Bold';fill:#00ff00;stroke-width:0.244514"
         d="m 96.122717,171.04235 v 6.6592 q 0,2.17771 -1.570242,3.7021 -1.55878,1.5244 -3.759411,1.5244 -1.088854,0 -2.051631,-0.37824 -0.951314,-0.38969 -1.719243,-1.1347 -0.756467,-0.745 -1.180547,-1.54732 -0.42408,-0.81377 -0.42408,-2.16624 v -6.6592 q -0.745005,0 -1.100315,-0.33239 -0.355311,-0.33239 -0.355311,-0.84816 0,-0.52724 0.355311,-0.84816 0.35531,-0.32093 1.214931,-0.32093 l 3.083176,-0.0115 q 0.84816,0 1.203471,0.33239 0.366772,0.32092 0.366772,0.84816 0,0.52723 -0.366772,0.85962 -0.355311,0.32093 -1.203471,0.32093 h -0.848159 v 6.86551 q 0,1.05447 0.871083,1.86824 0.882545,0.80231 2.1204,0.80231 0.825236,0 1.547319,-0.38969 0.722082,-0.3897 1.180546,-1.1347 0.286541,-0.46993 0.286541,-1.14616 v -6.86551 h -0.84816 q -0.84816,0 -1.214932,-0.32093 -0.35531,-0.33239 -0.35531,-0.85962 0,-0.52724 0.35531,-0.84816 0.366772,-0.33239 1.214932,-0.33239 l 3.083176,0.0115 q 0.84816,0 1.20347,0.32093 0.366772,0.32092 0.366772,0.84816 0,0.51577 -0.35531,0.84816 -0.35531,0.33239 -1.100316,0.33239 z" />
      <path
         id="path2795"
         style="font-style:normal;font-variant:normal;font-weight:bold;font-stretch:normal;font-size:23.4734px;font-family:'Courier New';-inkscape-font-specification:'Courier New Bold';fill:#00ff00;stroke-width:0.244514"
         d="m 105.96825,171.04235 v 9.19222 h 1.5817 q 0.84816,0 1.20347,0.33238 0.36678,0.32093 0.36678,0.84816 0,0.51578 -0.36678,0.84816 -0.35531,0.32093 -1.20347,0.32093 h -5.50157 q -0.84816,0 -1.21494,-0.32093 -0.35531,-0.33238 -0.35531,-0.85962 0,-0.51577 0.35531,-0.8367 0.36678,-0.33238 1.21494,-0.33238 h 1.57024 v -9.19222 h -2.54448 v 2.22355 q 0,0.84816 -0.33239,1.21493 -0.32092,0.35531 -0.848159,0.35531 -0.515773,0 -0.84816,-0.35531 -0.320925,-0.36677 -0.320925,-1.21493 v -4.58465 l 12.172244,0.0115 v 4.57319 q 0,0.84816 -0.33239,1.21493 -0.32093,0.35531 -0.84816,0.35531 -0.51577,0 -0.84816,-0.35531 -0.32093,-0.36677 -0.32093,-1.21493 v -2.22355 z" />
      <path
         id="path2797"
         style="font-style:normal;font-variant:normal;font-weight:bold;font-stretch:normal;font-size:23.4734px;font-family:'Courier New';-inkscape-font-specification:'Courier New Bold';fill:#00ff00;stroke-width:0.244514"
         d="m 120.07751,171.04235 v 9.19222 h 2.37256 q 0.84816,0 1.20347,0.33238 0.36677,0.32093 0.36677,0.84816 0,0.51578 -0.36677,0.84816 -0.35531,0.32093 -1.20347,0.32093 h -7.09475 q -0.84816,0 -1.21493,-0.32093 -0.35531,-0.33238 -0.35531,-0.85962 0,-0.51577 0.35531,-0.8367 0.36677,-0.33238 1.21493,-0.33238 h 2.37256 v -9.19222 h -2.37256 q -0.84816,0 -1.21493,-0.32093 -0.35531,-0.33239 -0.35531,-0.85962 0,-0.52724 0.35531,-0.84816 0.36677,-0.33239 1.21493,-0.33239 l 7.09475,0.0115 q 0.84816,0 1.20347,0.32093 0.36677,0.32092 0.36677,0.84816 0,0.52723 -0.36677,0.85962 -0.35531,0.32093 -1.20347,0.32093 z" />
      <path
         id="path2799"
         style="font-style:normal;font-variant:normal;font-weight:bold;font-stretch:normal;font-size:23.4734px;font-family:'Courier New';-inkscape-font-specification:'Courier New Bold';fill:#00ff00;stroke-width:0.244514"
         d="m 139.57372,175.63846 q 0,3.12902 -1.99432,5.21503 -1.98286,2.07456 -4.59611,2.07456 -2.34963,0 -4.2408,-1.73071 -2.33817,-2.14332 -2.33817,-5.55888 0,-3.41557 2.33817,-5.57035 1.89117,-1.73071 4.2408,-1.73071 2.61325,0 4.59611,2.08602 1.99432,2.07455 1.99432,5.21504 z m -2.34963,0 q 0,-2.14333 -1.29516,-3.54165 -1.29516,-1.40977 -2.94564,-1.40977 -1.63901,0 -2.93417,1.40977 -1.29517,1.40978 -1.29517,3.54165 0,2.13186 1.29517,3.54164 1.29516,1.39831 2.93417,1.39831 1.65048,0 2.94564,-1.39831 1.29516,-1.39832 1.29516,-3.54164 z" />
      <path
         id="path2801"
         style="font-style:normal;font-variant:normal;font-weight:bold;font-stretch:normal;font-size:23.4734px;font-family:'Courier New';-inkscape-font-specification:'Courier New Bold';fill:#00ff00;stroke-width:0.244514"
         d="m 144.11252,173.12836 v 7.10621 h 0.84816 q 0.84816,0 1.20347,0.33238 0.36677,0.32093 0.36677,0.84816 0,0.51578 -0.36677,0.84816 -0.35531,0.32093 -1.20347,0.32093 h -3.08317 q -0.84816,0 -1.21494,-0.32093 -0.35531,-0.33238 -0.35531,-0.85962 0,-0.50431 0.35531,-0.8367 0.35531,-0.33238 1.10032,-0.33238 v -9.19222 h -0.36677 q -0.84816,0 -1.21493,-0.32093 -0.35531,-0.33239 -0.35531,-0.85962 0,-0.52724 0.35531,-0.84816 0.36677,-0.33239 1.21493,-0.33239 l 2.7164,0.0115 6.00589,9.42146 v -7.07182 h -0.84816 q -0.84816,0 -1.21493,-0.32093 -0.35531,-0.33239 -0.35531,-0.85962 0,-0.52724 0.35531,-0.84816 0.36677,-0.33239 1.21493,-0.33239 l 3.08318,0.0115 q 0.84816,0 1.20347,0.32093 0.36677,0.32092 0.36677,0.84816 0,0.51577 -0.35531,0.84816 -0.35531,0.33239 -1.08885,0.33239 v 11.54185 h -2.32671 z" />
      <path
         id="path2803"
         style="font-style:normal;font-variant:normal;font-weight:bold;font-stretch:normal;font-size:23.4734px;font-family:'Courier New';-inkscape-font-specification:'Courier New Bold';fill:#00ff00;stroke-width:0.244514"
         d="m 157.69455,181.98819 q -0.30947,0.36678 -0.50431,0.46993 -0.18339,0.10315 -0.45847,0.10315 -0.53869,0 -0.87108,-0.35531 -0.32093,-0.36677 -0.32093,-1.20347 v -1.5817 q 0,-0.84816 0.32093,-1.20347 0.33239,-0.36677 0.87108,-0.36677 0.41262,0 0.6877,0.21777 0.28654,0.21777 0.43554,0.73354 0.149,0.50431 0.30946,0.6877 0.33239,0.35531 1.18055,0.72208 0.84816,0.36677 1.85678,0.36677 1.57025,0 2.57887,-0.73354 0.64185,-0.447 0.64185,-1.10032 0,-0.43554 -0.30946,-0.81377 -0.30947,-0.3897 -1.00863,-0.64185 -0.45846,-0.17193 -2.05163,-0.46993 -1.92555,-0.35531 -2.91125,-0.85962 -0.9857,-0.50431 -1.55878,-1.42124 -0.57308,-0.91693 -0.57308,-1.98286 0,-1.68486 1.40978,-2.94564 1.40978,-1.27224 3.66772,-1.27224 0.90547,0 1.67339,0.20631 0.77939,0.19485 1.40978,0.60747 0.45847,-0.44701 0.91693,-0.44701 0.51578,0 0.8367,0.36678 0.33239,0.35531 0.33239,1.19201 v 1.76508 q 0,0.84816 -0.33239,1.21494 -0.32092,0.35531 -0.8367,0.35531 -0.43554,0 -0.75646,-0.26362 -0.25216,-0.19485 -0.37824,-0.77939 -0.12608,-0.58454 -0.32092,-0.8367 -0.33239,-0.43554 -0.99716,-0.73354 -0.66478,-0.298 -1.53586,-0.298 -1.27224,0 -2.01725,0.596 -0.73354,0.58454 -0.73354,1.22639 0,0.43554 0.298,0.84816 0.30947,0.40116 0.89401,0.63039 0.38969,0.16046 2.18917,0.51578 1.81093,0.35531 2.77371,0.77939 0.97424,0.42408 1.61609,1.32954 0.64185,0.90547 0.64185,2.15479 0,1.74216 -1.22639,2.78517 -1.62755,1.3754 -4.14911,1.3754 -0.97424,0 -1.90263,-0.2407 -0.91693,-0.22923 -1.78801,-0.69916 z" />
    </g>
    <g
       transform="matrix(1.1952709,0,0,1.3030178,-29.034016,-19.926371)"
       style="font-style:normal;font-variant:normal;font-weight:bold;font-stretch:normal;font-size:22.5778px;line-height:1.25;font-family:'Courier New';-inkscape-font-specification:'Courier New Bold';letter-spacing:0px;word-spacing:0px;fill:#00ff00;fill-opacity:1;stroke:none;stroke-width:0.264583"
       id="text833"
       aria-label="&lt;/&gt;">
      <path
         id="path2806"
         style="font-style:normal;font-variant:normal;font-weight:bold;font-stretch:normal;font-size:22.5778px;font-family:'Courier New';-inkscape-font-specification:'Courier New Bold';fill:#00ff00;stroke-width:0.264583"
         d="m 97.54305,92.653466 7.32015,4.056949 q 0.55121,0.308681 0.7276,0.551216 0.18742,0.242535 0.18742,0.617361 0,0.474046 -0.34176,0.826824 -0.34175,0.341754 -0.79375,0.341754 -0.29766,0 -0.89297,-0.33073 L 92.846691,92.653466 103.74974,86.590092 q 0.59531,-0.319705 0.88195,-0.319705 0.46302,0 0.80477,0.341754 0.34176,0.341753 0.34176,0.815799 0,0.374827 -0.18742,0.617362 -0.17639,0.242535 -0.7276,0.551216 z" />
      <path
         id="path2808"
         style="font-style:normal;font-variant:normal;font-weight:bold;font-stretch:normal;font-size:22.5778px;font-family:'Courier New';-inkscape-font-specification:'Courier New Bold';fill:#00ff00;stroke-width:0.264583"
         d="m 118.1034,85.090785 -7.24298,15.610435 q -0.2756,0.58429 -0.49609,0.76068 -0.28663,0.23151 -0.69453,0.23151 -0.46302,0 -0.80478,-0.33073 -0.33073,-0.33073 -0.33073,-0.74966 0,-0.29765 0.26459,-0.870918 l 7.26502,-15.599408 q 0.27561,-0.584289 0.48507,-0.760678 0.29766,-0.231511 0.69453,-0.231511 0.46303,0 0.79376,0.33073 0.33072,0.319705 0.33072,0.738629 0,0.297656 -0.26458,0.870921 z" />
      <path
         id="path2810"
         style="font-style:normal;font-variant:normal;font-weight:bold;font-stretch:normal;font-size:22.5778px;font-family:'Courier New';-inkscape-font-specification:'Courier New Bold';fill:#00ff00;stroke-width:0.264583"
         d="m 129.37025,92.653466 -7.32014,-4.056948 q -0.55122,-0.308681 -0.73863,-0.551216 -0.17639,-0.242535 -0.17639,-0.617362 0,-0.474046 0.34175,-0.815799 0.34176,-0.341754 0.80478,-0.341754 0.28663,0 0.88194,0.319705 l 10.90305,6.063374 -10.90305,6.063374 q -0.59531,0.33073 -0.88194,0.33073 -0.46302,0 -0.80478,-0.341754 -0.34175,-0.341754 -0.34175,-0.826824 0,-0.374826 0.17639,-0.617361 0.18741,-0.242535 0.73863,-0.551216 z" />
    </g>
  </g>
</svg>
